<svg width="323" height="420" viewBox="0 0 323 420" fill="none" xmlns="http://www.w3.org/2000/svg">
<g clip-path="url(#clip0)">
<path d="M48.6479 273.649C48.29 277.141 41.5142 327.52 40.1118 339.728C38.7095 351.936 29.6091 383.771 27.0107 388.186C29.727 389.871 37.7788 394.37 37.7788 394.37C37.7788 394.37 62.3217 356.541 63.324 352.939C64.3263 349.337 68.5922 331.922 68.5922 331.922L62.7218 270.279L48.6479 273.649Z" fill="#2A2F36"/>
<path opacity="0.1" d="M215.901 76.531C240.772 97.7795 259.954 125.398 259.108 151.832C258.261 178.266 237.445 203.706 219.472 226.888C201.498 250.071 186.313 270.894 163.745 284.998C141.177 299.101 111.281 306.259 86.8985 297.585C62.5156 288.911 43.6325 264.478 31.6516 238.57C19.6707 212.662 14.4067 185.242 23.8482 165.451C33.2897 145.66 57.4284 133.435 77.5791 111.399C97.7297 89.3627 113.943 57.3466 137.286 48.8666C160.628 40.3865 191.092 55.2866 215.901 76.531Z" fill="white"/>
<path d="M45.5569 209.789C43.9061 207.464 40.1624 197.446 40.1624 195.466C40.1624 193.486 51.5326 153.846 52.2485 150.475C52.9644 147.105 52.9434 137.572 52.2485 134.434C52.5517 133.263 53.3561 132.883 53.5666 133.591C54.1183 134.038 57.2557 135.921 57.2557 135.921C57.2557 135.921 64.5916 146.031 62.9534 148.314C61.6116 150.125 60.4374 152.054 59.4455 154.077C59.0496 156.626 53.2592 189.463 53.5498 191.57C53.8404 193.676 59.6729 204.296 59.8245 205.05C58.5653 205.72 46.2981 210.569 45.5569 209.789Z" fill="white"/>
<path d="M51.0479 131.258C51.5633 130.961 52.1079 131.188 52.2859 131.786C52.3522 132.009 52.2253 132.244 52.0024 132.31C51.7795 132.376 51.545 132.249 51.4786 132.026L51.4727 132L51.4717 131.985L51.468 131.988C51.3159 132.076 51.1452 132.32 51.0265 132.671L50.9975 132.762L51.0075 132.81C51.1469 133.499 51.2571 134.444 51.3381 135.54L51.3734 136.057L51.4045 136.592L51.4315 137.144C51.4398 137.331 51.4475 137.52 51.4544 137.711L51.4731 138.289L51.4876 138.878C51.4897 138.977 51.4916 139.076 51.4934 139.175L51.5017 139.775L51.5059 140.378L51.5059 140.983L51.5018 141.588L51.4935 142.19C51.4918 142.29 51.4899 142.389 51.4878 142.489L51.4733 143.082C51.4706 143.18 51.4677 143.278 51.4646 143.376L51.4438 143.955C51.44 144.051 51.4361 144.146 51.4319 144.241L51.405 144.802C51.4002 144.894 51.3952 144.986 51.39 145.077L51.3568 145.613C51.2747 146.845 51.1586 147.922 51.0088 148.713L50.8598 149.429L50.7391 149.931L50.5041 150.829L49.7051 153.756L45.3605 169.419C45.2983 169.643 45.0662 169.774 44.8421 169.712C44.618 169.65 44.4868 169.417 44.549 169.193L49.3475 151.877L49.8235 150.107L49.9434 149.638L50.0404 149.232L50.1022 148.946L50.1517 148.705C50.2253 148.349 50.2909 147.92 50.3486 147.436L50.3961 147.008C50.4037 146.935 50.4112 146.86 50.4185 146.785L50.4602 146.32C50.4668 146.24 50.4733 146.16 50.4796 146.079L50.5155 145.582L50.5475 145.066C50.5525 144.979 50.5574 144.891 50.562 144.802L50.5882 144.263L50.6106 143.711L50.629 143.148L50.6436 142.576L50.6543 141.998L50.6611 141.416L50.664 140.831C50.6642 140.734 50.6642 140.636 50.664 140.539L50.6612 139.955L50.6544 139.375L50.6438 138.801C50.6417 138.705 50.6394 138.611 50.637 138.516L50.6206 137.954C50.6175 137.861 50.6143 137.769 50.6109 137.677L50.5886 137.133L50.5625 136.602L50.5325 136.089L50.4986 135.594C50.4807 135.352 50.4613 135.117 50.4405 134.892L50.397 134.453L50.3495 134.041C50.2919 133.577 50.2264 133.171 50.153 132.84C50.1386 132.775 50.1398 132.707 50.1565 132.643C50.3245 131.994 50.6498 131.487 51.0479 131.258Z" fill="#1B3C87"/>
<path d="M42.2909 178.934C42.5152 178.996 42.6472 179.227 42.5857 179.452L41.2874 184.22L40.3492 187.731L39.8119 189.791L39.4232 191.328L39.1798 192.337L39.1032 192.669L39.011 193.092L38.955 193.373L38.9305 193.51L38.913 193.624L38.9052 193.687L38.8994 193.762L38.899 193.781C38.899 193.959 38.9313 194.206 38.9911 194.509L39.0411 194.747C39.0594 194.83 39.0794 194.917 39.101 195.006L39.1703 195.283C39.1826 195.331 39.1953 195.379 39.2084 195.429L39.291 195.732L39.382 196.052L39.4809 196.386L39.6431 196.912L39.7597 197.278L39.9465 197.847L40.1461 198.435L40.3569 199.04L40.5775 199.656L40.8064 200.28L40.9629 200.698L41.2022 201.327L41.4459 201.952L41.61 202.366L41.8575 202.978L42.0227 203.378L42.2699 203.965L42.4335 204.346L42.5957 204.716L42.7561 205.075L42.9141 205.421L43.0694 205.754C43.0951 205.808 43.1206 205.862 43.1459 205.915L43.2963 206.225C43.321 206.275 43.3456 206.325 43.37 206.374L43.5144 206.658L43.6543 206.924L43.7892 207.17C43.9435 207.446 44.0867 207.678 44.2158 207.86C44.3505 208.05 44.3059 208.313 44.1163 208.448C43.9266 208.582 43.6638 208.538 43.5291 208.348C43.3924 208.156 43.2417 207.912 43.0801 207.625L42.9391 207.369C42.9152 207.325 42.8911 207.28 42.8667 207.234L42.7186 206.949C42.6936 206.9 42.6683 206.85 42.6429 206.799L42.4887 206.488L42.3309 206.16L42.1701 205.817L42.0067 205.46L41.841 205.091L41.6737 204.71L41.505 204.319L41.3356 203.919L41.0807 203.305L40.9111 202.887L40.7422 202.465L40.4911 201.824L40.326 201.395L40.0826 200.749L39.924 200.32L39.6925 199.681L39.5432 199.259L39.3984 198.843L39.2586 198.433L39.1241 198.031L38.9955 197.637L38.8732 197.254L38.7576 196.881L38.6492 196.521L38.5484 196.174L38.4557 195.842C38.441 195.788 38.4266 195.735 38.4126 195.682L38.3328 195.375C38.2952 195.225 38.261 195.082 38.2305 194.946L38.1746 194.685C38.1068 194.35 38.0664 194.07 38.0583 193.858L38.0571 193.758L38.0627 193.674L38.0807 193.527L38.1106 193.341L38.1649 193.053L38.2377 192.704L38.3498 192.203L38.5408 191.397L38.7153 190.689L38.9895 189.606L39.3546 188.198L39.7294 186.777L40.3218 184.563L41.3423 180.804L41.7734 179.229C41.8349 179.005 42.0666 178.873 42.2909 178.934Z" fill="#1B3C87"/>
<path d="M232.034 0.413757L32.2709 51.7959L78.1005 230.093L277.864 178.711L232.034 0.413757Z" fill="#4C535C"/>
<path opacity="0.1" d="M84.3953 38.3849L32.2715 51.792L78.1012 230.089L130.225 216.682L84.3953 38.3849Z" fill="black"/>
<path opacity="0.2" d="M64.9707 87.6059C74.1785 87.6059 81.6428 80.139 81.6428 70.9281C81.6428 61.7172 74.1785 54.2502 64.9707 54.2502C55.7629 54.2502 48.2985 61.7172 48.2985 70.9281C48.2985 80.139 55.7629 87.6059 64.9707 87.6059Z" fill="#EAF0FF"/>
<path opacity="0.2" d="M91.2292 91.0187L52.0548 101.095L53.0228 104.861L92.1972 94.7845L91.2292 91.0187Z" fill="#EAF0FF"/>
<path opacity="0.2" d="M93.561 100.085L54.3866 110.161L55.3546 113.927L94.529 103.851L93.561 100.085Z" fill="#EAF0FF"/>
<path opacity="0.2" d="M139.059 116.631C141.617 116.631 143.691 114.556 143.691 111.997C143.691 109.438 141.617 107.363 139.059 107.363C136.5 107.363 134.426 109.438 134.426 111.997C134.426 114.556 136.5 116.631 139.059 116.631Z" fill="#B2C3FB"/>
<path opacity="0.2" d="M223.688 88.2147L149.434 107.314L150.402 111.08L224.656 91.9805L223.688 88.2147Z" fill="#D8DFFF"/>
<path opacity="0.2" d="M206.845 22.6668L117.191 45.7273L132.337 104.654L221.992 81.5931L206.845 22.6668Z" fill="white"/>
<path opacity="0.2" d="M160.481 199.987C163.039 199.987 165.113 197.912 165.113 195.353C165.113 192.793 163.039 190.719 160.481 190.719C157.923 190.719 155.849 192.793 155.849 195.353C155.849 197.912 157.923 199.987 160.481 199.987Z" fill="#B2C3FB"/>
<path opacity="0.2" d="M245.117 171.569L170.863 190.669L171.831 194.434L246.085 175.335L245.117 171.569Z" fill="#D8DFFF"/>
<path opacity="0.2" d="M228.269 106.021L138.614 129.082L153.761 188.008L243.415 164.948L228.269 106.021Z" fill="white"/>
<path d="M24.9516 391.447L20.8035 398.756L15.6111 402.758L29.8029 419.259H41.4469L33.8625 407.547L35.1427 397.248" fill="white"/>
<path d="M78.2655 403.091L80.3037 410.48L78.8677 419.259H110.199L91.8045 408.394L92.2509 403.091" fill="white"/>
<path d="M60.5182 267.763C60.7516 267.707 60.9807 267.857 61.0284 268.086L61.0355 268.132L66.9059 329.763C66.9089 329.795 66.9084 329.826 66.9043 329.857L66.8931 329.914L65.6887 334.811L64.5792 339.296L63.4749 343.727L62.4448 347.804L62.0961 349.159L61.7366 350.522L61.6242 350.933L61.6098 350.982L61.574 351.09L61.5285 351.213L61.4735 351.349L61.409 351.499L61.2946 351.75C61.2807 351.78 61.2664 351.81 61.2518 351.84L61.1592 352.032L61.0029 352.344L60.826 352.686L60.6287 353.058L60.4858 353.322L60.1733 353.89L59.9156 354.35L59.4425 355.18L58.9154 356.089L58.3352 357.076L57.962 357.704L57.2987 358.812L56.5846 359.995L55.9772 360.993L54.8387 362.85L53.6059 364.846L52.6689 366.353L51.0743 368.905L49.3653 371.623L47.6883 374.278L46.5404 376.088L44.7901 378.84L43.0143 381.621L41.2225 384.419L38.1777 389.153L36.0265 392.481C35.9058 392.667 35.6615 392.727 35.4679 392.619L33.6463 391.597L32.1143 390.732L30.6111 389.88L28.2448 388.526L26.8449 387.715L25.9499 387.189L25.1967 386.739L24.7774 386.483C24.7453 386.464 24.7139 386.444 24.6832 386.425C24.4884 386.304 24.426 386.05 24.5428 385.853C25.1399 384.844 26.0048 382.626 27.0105 379.646L27.3016 378.774C27.449 378.329 27.5989 377.868 27.7512 377.394L28.0585 376.429L28.3713 375.431C28.4238 375.262 28.4765 375.092 28.5295 374.92L28.849 373.876L29.1723 372.805C29.2264 372.624 29.2807 372.442 29.3351 372.26L29.6627 371.151L29.9924 370.021L30.3236 368.872L30.6554 367.706L30.9874 366.525L31.3189 365.331L31.6491 364.128L31.9775 362.917L32.3033 361.7L32.6259 360.481L32.9448 359.26L33.2591 358.042L33.5682 356.827L33.8716 355.618C33.9216 355.417 33.9714 355.217 34.0208 355.017L34.3142 353.822C34.3625 353.623 34.4105 353.426 34.4582 353.228L34.7401 352.052L35.0136 350.892C35.1033 350.508 35.1915 350.127 35.278 349.749L35.5327 348.626L35.7769 347.526C35.8167 347.345 35.8561 347.165 35.8949 346.985L36.1223 345.923C36.233 345.399 36.3392 344.886 36.4406 344.384L36.6365 343.397C37.0466 341.295 37.3601 339.433 37.547 337.917L37.8546 335.327L38.6763 328.736L39.2394 324.32C39.2689 324.089 39.4799 323.926 39.7106 323.955C39.9413 323.985 40.1043 324.196 40.0748 324.427L39.3159 330.392L38.6109 336.091L38.4247 337.67C38.2357 339.321 37.8848 341.417 37.4142 343.808L37.2197 344.78C37.0858 345.438 36.9439 346.116 36.7947 346.81L36.5654 347.863C36.5264 348.041 36.4868 348.219 36.4469 348.399L36.2023 349.486C36.1607 349.669 36.1188 349.853 36.0764 350.037L35.8178 351.154L35.5507 352.287L35.2756 353.434C35.2291 353.626 35.1823 353.819 35.1352 354.012L34.8492 355.178L34.5568 356.352C34.5075 356.549 34.458 356.745 34.4083 356.942L34.1073 358.127L33.8012 359.315C33.7498 359.513 33.6983 359.711 33.6465 359.91L33.3341 361.1L33.0183 362.289L32.6995 363.474L32.3785 364.654L32.0558 365.826L31.7319 366.988L31.4076 368.138L31.0835 369.274L30.76 370.393L30.4378 371.495L30.1175 372.576C30.0644 372.754 30.0113 372.932 29.9583 373.108L29.642 374.154L29.3292 375.175C29.2773 375.343 29.2257 375.509 29.1742 375.675L28.8676 376.653C28.8168 376.813 28.7663 376.972 28.716 377.13L28.417 378.061C28.3676 378.213 28.3185 378.364 28.2696 378.513L27.9795 379.391C27.0232 382.258 26.1787 384.501 25.5457 385.766L25.4674 385.918L26.1437 386.325L26.8709 386.754L28.4367 387.664L30.0568 388.594L31.523 389.429L33.5478 390.574L35.5343 391.691L38.1399 387.656L40.5136 383.964L42.3047 381.168L44.0798 378.387L45.2496 376.549L46.4051 374.729L47.5436 372.931L49.7165 369.483L51.3316 366.905L52.6541 364.781L53.889 362.784L55.0332 360.92L56.2261 358.958L57.1661 357.393L57.8925 356.169L58.4404 355.233L58.7435 354.708L59.1175 354.054L59.5356 353.309L59.8298 352.772L60.0267 352.405L60.2028 352.068L60.3581 351.762L60.4922 351.487L60.605 351.244L60.6682 351.099L60.7217 350.969L60.7655 350.854L60.7995 350.752L60.8328 350.635L61.1402 349.487L61.3743 348.587L62.0035 346.122L63.0302 342.033L63.9436 338.36L66.0605 329.772L60.2427 268.695L46.9286 271.883L46.7475 273.373L45.8371 280.429L43.0856 301.368C43.0553 301.599 42.8438 301.761 42.6132 301.731C42.3826 301.701 42.2202 301.489 42.2506 301.258L45.2247 278.612L45.9303 273.122L46.0825 271.87L46.1234 271.5C46.1396 271.34 46.2456 271.204 46.3935 271.148L46.4444 271.133L60.5182 267.763Z" fill="#1B3C87"/>
<path d="M93.7711 397.576C94.0037 397.576 94.1922 397.765 94.1922 397.997C94.1922 398.213 94.0296 398.392 93.8202 398.416L93.7711 398.419H73.0056C72.773 398.419 72.5845 398.23 72.5845 397.997C72.5845 397.781 72.747 397.603 72.9565 397.579L73.0056 397.576H93.7711Z" fill="#1B3C87"/>
<path d="M93.7711 400.984C94.0037 400.984 94.1922 401.173 94.1922 401.405C94.1922 401.621 94.0296 401.799 93.8202 401.824L93.7711 401.827H73.0056C72.773 401.827 72.5845 401.638 72.5845 401.405C72.5845 401.189 72.747 401.011 72.9565 400.987L73.0056 400.984H93.7711Z" fill="#1B3C87"/>
<path d="M90.6017 400.986C90.8169 401.004 90.9806 401.181 90.9873 401.392L90.986 401.441L90.5617 406.48L108.729 417.211C109.084 417.42 108.954 417.952 108.563 417.992L108.515 417.995H104.691C104.458 417.995 104.27 417.806 104.27 417.574C104.27 417.357 104.432 417.179 104.642 417.155L104.691 417.152L106.972 417.152L89.9059 407.072C89.7821 406.999 89.7052 406.868 89.6992 406.727L89.7003 406.674L90.1467 401.37C90.1648 401.155 90.3418 400.991 90.5525 400.984L90.6017 400.986Z" fill="#1B3C87"/>
<path d="M76.4689 400.999C76.6771 400.942 76.8919 401.051 76.971 401.247L76.9868 401.293L79.0251 408.682C79.0359 408.722 79.0409 408.762 79.0402 408.802L79.0347 408.863L77.6783 417.152L95.5566 417.152C95.7726 417.152 95.9506 417.315 95.9749 417.524L95.9777 417.574C95.9777 417.79 95.8152 417.968 95.6057 417.992L95.5566 417.995H77.1831C76.9396 417.995 76.7505 417.79 76.7624 417.553L76.7675 417.506L78.1887 408.817L76.1749 401.518C76.1175 401.309 76.2269 401.094 76.4223 401.015L76.4689 400.999Z" fill="#1B3C87"/>
<path d="M21.8735 384.456C21.9803 384.268 22.2096 384.194 22.4037 384.276L22.4478 384.298L37.1154 392.644C37.3176 392.759 37.3882 393.016 37.2733 393.218C37.1665 393.406 36.9372 393.48 36.7431 393.398L36.699 393.376L22.0314 385.031C21.8292 384.916 21.7585 384.658 21.8735 384.456Z" fill="#1B3C87"/>
<path d="M20.4164 388.138C20.5232 387.95 20.7525 387.876 20.9465 387.958L20.9906 387.98L35.6625 396.329C35.8647 396.444 35.9353 396.702 35.8203 396.904C35.7135 397.092 35.4842 397.166 35.2901 397.084L35.246 397.062L20.5742 388.712C20.372 388.597 20.3014 388.34 20.4164 388.138Z" fill="#1B3C87"/>
<path d="M33.5108 395.144C33.7252 395.171 33.8818 395.354 33.8801 395.565L33.8769 395.614L32.615 405.762L33.5345 407.184C33.6518 407.365 33.612 407.603 33.4493 407.737L33.4095 407.766C33.2281 407.884 32.9903 407.844 32.8561 407.681L32.827 407.641L31.8244 406.091C31.7814 406.025 31.7583 405.948 31.757 405.869L31.7601 405.81L33.0408 395.51C33.0674 395.296 33.2508 395.139 33.4617 395.141L33.5108 395.144Z" fill="#1B3C87"/>
<path d="M20.1086 394.47C20.2233 394.268 20.4803 394.196 20.6826 394.311C20.8705 394.418 20.9452 394.647 20.863 394.841L20.8413 394.885L19.4853 397.278C19.4668 397.311 19.4442 397.341 19.4179 397.367L19.376 397.404L14.5359 401.134L28.3116 417.152H38.9874L36.4021 413.16C36.2846 412.979 36.3243 412.741 36.4868 412.607L36.5265 412.577C36.7078 412.46 36.9455 412.5 37.0798 412.662L37.1089 412.702L40.1157 417.344C40.2886 417.611 40.1144 417.96 39.8091 417.992L39.7623 417.995H28.1183C28.0132 417.995 27.9125 417.955 27.8355 417.886L27.7991 417.848L13.6073 401.347C13.461 401.177 13.4751 400.925 13.631 400.772L13.6695 400.739L18.7947 396.788L20.1086 394.47Z" fill="#1B3C87"/>
<path d="M54.8553 276.703C54.8553 278.809 56.6072 303.849 62.604 323.674C66.5667 342.605 78.0591 400.104 78.0591 400.104H92.672L87.4122 271.66L54.8553 276.703Z" fill="#2A2F36"/>
<path d="M85.242 269.138C85.4739 269.102 85.6868 269.262 85.7225 269.488L85.7274 269.537L90.9872 397.98C90.9963 398.203 90.8304 398.392 90.6136 398.416L90.5664 398.419H75.9535C75.7695 398.419 75.6089 398.3 75.5531 398.128L75.5239 397.997L71.8279 379.55L68.5389 363.183C68.4188 362.586 68.299 361.99 68.1795 361.397C68.1336 361.169 68.2812 360.947 68.5092 360.901C68.7372 360.855 68.9592 361.003 69.0051 361.231L72.6537 379.384L76.2984 397.576H90.1272L84.9049 270.043L53.1763 274.97L53.1864 275.259L53.2073 275.706L53.2285 276.084L53.2844 276.946L53.3444 277.763L53.4007 278.475L53.4643 279.236L53.5536 280.248L53.6534 281.323L53.8096 282.917L53.9582 284.351L54.1473 286.086L54.3221 287.611L54.4628 288.789L54.5797 289.737L54.6394 290.211C54.6897 290.606 54.7408 291.001 54.7928 291.395C56.2387 302.355 58.2614 312.73 60.9105 321.494L62.1361 327.404L63.6248 334.677L64.5538 339.244C64.6 339.472 64.4528 339.695 64.2249 339.741C63.9969 339.787 63.7746 339.64 63.7284 339.412L61.3132 327.582L60.1405 321.918C60.1253 321.846 60.1102 321.774 60.0953 321.702C57.4942 313.103 55.4923 302.931 54.0473 292.178L53.8955 291.03L53.8341 290.554C53.763 289.998 53.6937 289.442 53.6263 288.888L53.4284 287.219L53.2945 286.039L53.0951 284.198L52.9151 282.435L52.8133 281.385L52.6684 279.803L52.561 278.536L52.4616 277.244L52.4044 276.398L52.3686 275.783L52.3479 275.354L52.3346 274.984L52.3286 274.676C52.3286 274.653 52.3286 274.631 52.3286 274.609C52.3286 274.418 52.4576 274.252 52.6388 274.203L52.6851 274.193L85.242 269.138Z" fill="#1B3C87"/>
<path d="M104.897 220.06C108.266 221.846 118.988 226.695 120.281 226.695C121.574 226.695 140.073 220.586 141.05 218.72C142.027 216.854 143.038 211.883 144.731 211.386C146.424 210.889 145.468 215.262 145.468 215.262C146.47 214.933 162.292 210.809 162.22 210.893C162.641 213.16 154.08 219.584 153.187 219.815C148.786 224.753 121.384 240.12 120.192 240.12C119.001 240.12 100.488 235.065 99.3215 234.644C99.5531 232.921 103.297 221.277 104.897 220.06Z" fill="white"/>
<path d="M61.4143 144.746C61.6468 144.74 61.84 144.924 61.8458 145.157C61.8897 146.909 61.3281 148.18 59.9888 150.016L59.5892 150.555C59.45 150.741 59.1861 150.779 58.9998 150.64C58.8135 150.501 58.7753 150.237 58.9145 150.05L59.1844 149.688C60.5132 147.895 61.0432 146.749 61.0038 145.178C60.998 144.945 61.1818 144.752 61.4143 144.746Z" fill="#1B3C87"/>
<path d="M57.7168 153.074C57.945 153.12 58.0931 153.341 58.0478 153.57L57.9192 154.23L57.7748 154.995L57.5596 156.165L57.2587 157.844L56.9276 159.73L56.645 161.364L56.2745 163.535L55.6554 167.222L55.1037 170.565L54.5594 173.916L54.3323 175.331L53.7575 178.968L53.4289 181.092L53.0756 183.431L52.8696 184.835L52.6907 186.095L52.5761 186.933L52.5097 187.437L52.4517 187.895L52.4026 188.304L52.3627 188.663L52.3324 188.968C52.307 189.246 52.2965 189.441 52.3026 189.543C52.3076 189.626 52.3202 189.72 52.3405 189.823L52.3686 189.953C52.3739 189.975 52.3795 189.998 52.3855 190.021L52.4248 190.166C52.4392 190.217 52.4548 190.269 52.4717 190.322L52.5262 190.489L52.5883 190.666L52.6582 190.855L52.7358 191.055L52.8668 191.376L52.964 191.606L53.1822 192.1L53.367 192.503L53.5699 192.935L53.7913 193.396L54.0312 193.886L54.3683 194.564L54.6022 195.028L54.9778 195.764L56.6045 198.926L57.1136 199.929L57.2912 200.283L57.5847 200.882L57.726 201.181L57.8456 201.443L57.9151 201.601L57.9776 201.748L58.045 201.914C58.1247 202.116 58.1888 202.299 58.2538 202.496C58.3265 202.717 58.2063 202.955 57.9853 203.028C57.7802 203.096 57.5603 202.997 57.4717 202.805L57.4537 202.76L57.3906 202.573L57.3509 202.461L57.2478 202.191L57.1607 201.981L56.9875 201.593L56.7595 201.112L56.4613 200.508L55.7878 199.18L53.9643 195.632L53.6875 195.086L53.265 194.239L52.961 193.617L52.7526 193.181L52.5004 192.64L52.3301 192.262L52.1758 191.909L52.0372 191.577L51.9534 191.369L51.8405 191.074L51.7736 190.889L51.7133 190.713L51.6596 190.545L51.6124 190.386C51.6051 190.36 51.598 190.335 51.5912 190.309L51.5537 190.162L51.5224 190.023L51.4974 189.892L51.4786 189.767C51.476 189.747 51.4737 189.727 51.4715 189.708L51.4619 189.594C51.4575 189.522 51.4606 189.408 51.4705 189.256L51.4905 189L51.5205 188.689L51.5601 188.325L51.6089 187.911L51.6665 187.448L51.7326 186.939L51.8468 186.094L52.0253 184.826L52.2863 183.041L52.4609 181.876L52.8445 179.369L53.2658 176.678L53.7915 173.386L54.2599 170.501L54.734 167.622L55.2811 164.351L55.7332 161.691L56.0905 159.622L56.4871 157.368L56.7839 155.721L56.9448 154.85L57.1365 153.84L57.2217 153.405C57.267 153.177 57.4887 153.029 57.7168 153.074Z" fill="#1B3C87"/>
<path d="M60.1193 232.984C54.2952 235.512 41.1689 214.566 44.0241 211.234C48.0163 206.643 59.2602 203.108 63.1135 204.595C65.0591 207.262 70.0241 228.708 60.1193 232.984Z" fill="#46DBC9"/>
<path d="M42.0218 209.273C41.4615 209.927 41.404 211.121 41.7521 212.66L41.8138 212.919C41.8466 213.051 41.8821 213.184 41.9203 213.32L42.0004 213.595L42.0877 213.875L42.182 214.161L42.2833 214.452C42.3008 214.501 42.3185 214.551 42.3365 214.6L42.4481 214.899C42.4672 214.949 42.4866 214.999 42.5064 215.05L42.6279 215.356L42.756 215.666C42.7779 215.718 42.8001 215.77 42.8225 215.823L42.9603 216.139L43.1044 216.46C43.1289 216.513 43.1537 216.567 43.1788 216.621L43.3322 216.948L43.4916 217.277L43.657 217.61L43.8282 217.946L44.0052 218.285L44.1879 218.626L44.3761 218.97L44.5698 219.317L44.7689 219.665L44.9732 220.015L45.1826 220.367L45.3972 220.72L45.6167 221.075L45.841 221.431L46.0701 221.787L46.3039 222.144L46.5422 222.502L46.785 222.86L47.0438 223.234L47.3033 223.603L47.5631 223.965C47.6065 224.025 47.6499 224.085 47.6932 224.144L47.9537 224.497C47.9971 224.555 48.0406 224.613 48.084 224.671L48.3448 225.014C48.3883 225.07 48.4318 225.127 48.4752 225.183L48.7361 225.515L48.997 225.841C49.0405 225.895 49.084 225.948 49.1274 226.002L49.3881 226.317C49.4315 226.369 49.4749 226.42 49.5183 226.472L49.7785 226.776L50.0384 227.073C50.0816 227.122 50.1249 227.17 50.1681 227.219L50.4271 227.504C50.4703 227.551 50.5134 227.598 50.5564 227.644L50.8145 227.918L51.0717 228.184L51.3281 228.442C51.4134 228.527 51.4986 228.61 51.5836 228.692L51.8379 228.934C51.8802 228.973 51.9225 229.012 51.9647 229.051L52.2173 229.28C52.3433 229.392 52.4688 229.502 52.5938 229.607L52.843 229.815C52.9672 229.916 53.0909 230.014 53.2139 230.109L53.4592 230.294C55.414 231.736 57.2002 232.294 58.6025 231.686C61.7228 230.339 63.5956 227.344 64.3862 223.183L64.4561 222.795C64.6566 221.623 64.7745 220.363 64.8133 219.024L64.8233 218.575L64.8275 218.12L64.8258 217.66C64.8228 217.351 64.816 217.038 64.8053 216.722L64.7876 216.273L64.7658 215.846C64.7537 215.632 64.7397 215.417 64.724 215.201L64.6902 214.768L64.652 214.334L64.6094 213.899L64.5626 213.463L64.5118 213.028L64.4572 212.594L64.3988 212.161L64.3369 211.73L64.2716 211.301L64.2031 210.875L64.1316 210.454L64.0571 210.036L63.9799 209.623L63.8593 209.013L63.776 208.615L63.6904 208.223L63.6029 207.838L63.5135 207.461C63.4985 207.399 63.4833 207.337 63.4682 207.276L63.3763 206.912L63.2829 206.557L63.1883 206.212L63.0925 205.877L62.9957 205.554L62.8982 205.242C62.8818 205.191 62.8655 205.14 62.8491 205.09L62.7506 204.796L62.6517 204.515C62.6352 204.47 62.6187 204.425 62.6021 204.38L62.5029 204.12C62.4698 204.035 62.4367 203.953 62.4036 203.873L62.3045 203.642C62.1231 203.232 61.9431 202.9 61.7692 202.662C61.7215 202.597 61.656 202.546 61.5806 202.517C59.7341 201.805 56.4917 202.146 53.1024 203.14L52.6394 203.279C52.0212 203.471 51.4 203.683 50.7834 203.914L50.3219 204.09C46.9453 205.409 43.7623 207.271 42.0218 209.273ZM61.1582 203.26L61.1753 203.285C61.3286 203.524 61.4881 203.847 61.6498 204.239L61.747 204.483L61.8446 204.743C61.8609 204.788 61.8772 204.833 61.8935 204.879L61.9912 205.161L62.0888 205.459C62.105 205.509 62.1213 205.561 62.1375 205.613L62.2344 205.93C62.2506 205.984 62.2666 206.039 62.2827 206.094L62.3787 206.43L62.4737 206.779L62.5676 207.138L62.6601 207.508C62.6755 207.571 62.6907 207.634 62.7059 207.697L62.7961 208.081L62.8845 208.475L62.971 208.876C62.9852 208.944 62.9993 209.011 63.0134 209.08L63.0964 209.492L63.177 209.911C63.1902 209.981 63.2033 210.052 63.2163 210.122L63.2928 210.55L63.3663 210.982L63.4366 211.418L63.5036 211.858L63.567 212.3L63.6267 212.745C63.646 212.893 63.6645 213.042 63.6824 213.191L63.734 213.638L63.7813 214.085L63.824 214.532L63.862 214.977C63.8679 215.052 63.8737 215.126 63.8792 215.2L63.9097 215.642C63.9144 215.716 63.9188 215.789 63.9231 215.862L63.9457 216.3C63.9491 216.373 63.9522 216.446 63.955 216.518C64.0235 218.249 63.9761 219.865 63.8084 221.348L63.7596 221.749C63.1647 226.323 61.3814 229.568 58.268 230.912C57.3665 231.304 56.1757 231.021 54.8215 230.192L54.6004 230.053C54.341 229.885 54.0759 229.698 53.806 229.492L53.5736 229.311C53.5347 229.28 53.4956 229.249 53.4565 229.217L53.2208 229.023C53.1814 228.99 53.1418 228.956 53.1022 228.923L52.8635 228.715L52.6229 228.499L52.3806 228.275C52.3401 228.237 52.2995 228.199 52.2588 228.16L52.0142 227.923C51.9324 227.843 51.8503 227.761 51.7681 227.678L51.5206 227.425C51.4793 227.382 51.4379 227.339 51.3965 227.296L51.1473 227.031L50.8971 226.758C50.8553 226.712 50.8135 226.666 50.7716 226.619L50.5201 226.335L50.2679 226.044L50.0151 225.745L49.7618 225.44C49.7195 225.388 49.6772 225.336 49.635 225.284L49.3812 224.968L49.1272 224.644L48.8731 224.314L48.6191 223.978L48.3653 223.635L48.1117 223.285C48.0695 223.226 48.0273 223.167 47.9851 223.108L47.7322 222.749L47.48 222.384L47.2448 222.037L47.0139 221.69L46.7874 221.343L46.5654 220.997L46.348 220.651L46.1353 220.307L45.9274 219.963C45.8931 219.906 45.8591 219.849 45.8252 219.792L45.6246 219.45L45.429 219.11L45.2385 218.773L45.0532 218.437L44.8731 218.104L44.6985 217.774C44.6698 217.719 44.6414 217.664 44.6132 217.61L44.4468 217.284L44.286 216.961L44.1309 216.642L43.9816 216.327L43.8382 216.016C43.8148 215.964 43.7916 215.913 43.7687 215.862L43.6343 215.557L43.5061 215.257L43.3253 214.816L43.2128 214.529L43.1066 214.247L43.0071 213.97L42.9141 213.7C42.8992 213.655 42.8845 213.611 42.8702 213.567L42.7873 213.306C42.7476 213.177 42.7105 213.051 42.676 212.927L42.6105 212.683C42.5796 212.563 42.5512 212.445 42.5256 212.33L42.4781 212.104C42.2658 211.032 42.3105 210.231 42.6593 209.824C44.0874 208.181 46.5828 206.625 49.3355 205.413L49.7609 205.229C50.2593 205.017 50.7647 204.818 51.2723 204.631L51.7078 204.474C51.7805 204.448 51.8531 204.423 51.9258 204.398L52.3618 204.251L52.7972 204.111C52.8697 204.088 52.9422 204.066 53.0146 204.043L53.448 203.914C56.4751 203.033 59.3427 202.696 61.0386 203.221L61.1582 203.26Z" fill="#1B3C87"/>
<path d="M160.153 209.487C160.25 209.276 160.5 209.183 160.712 209.28C160.923 209.378 161.015 209.628 160.918 209.839C159.661 212.572 156.35 215.76 151.751 218.472L151.552 218.588L151.448 218.694C150.348 219.788 148.283 221.362 145.698 223.154L144.98 223.648C144.859 223.731 144.736 223.815 144.612 223.899L143.86 224.407L143.087 224.923L142.294 225.446C142.161 225.534 142.027 225.621 141.892 225.709L141.075 226.24C140.938 226.329 140.8 226.418 140.662 226.507L139.825 227.043L138.978 227.581L138.122 228.12L137.259 228.658L136.392 229.195L135.522 229.729L134.651 230.26L133.781 230.785L132.914 231.305L132.053 231.817L131.199 232.32C131.057 232.403 130.916 232.486 130.775 232.568L129.936 233.056L129.109 233.533L128.296 233.997L127.499 234.448L126.721 234.883L125.963 235.302L125.227 235.704L124.515 236.087C124.399 236.15 124.284 236.211 124.169 236.272L123.498 236.625C120.979 237.938 119.106 238.779 118.386 238.848L118.297 238.852L118.19 238.85L118.067 238.843L117.928 238.831L117.773 238.814L117.604 238.793L117.419 238.767L117.115 238.721L116.78 238.664L116.284 238.573L115.736 238.466L115.138 238.343L114.491 238.205L113.618 238.01L112.87 237.839C112.644 237.786 112.503 237.56 112.556 237.333C112.608 237.107 112.835 236.966 113.061 237.018L113.772 237.181L114.605 237.367L115.517 237.561L116.199 237.699L116.688 237.791L117.021 237.851L117.323 237.901L117.677 237.954L117.904 237.982L118.036 237.996L118.152 238.005L118.253 238.009C118.268 238.01 118.283 238.01 118.297 238.01C118.325 238.01 118.359 238.007 118.397 238L118.481 237.983L118.579 237.958L118.689 237.925L118.813 237.883L118.949 237.834L119.176 237.746L119.343 237.678L119.521 237.602L119.711 237.519L119.913 237.429L120.348 237.227L120.703 237.058L121.08 236.875L121.617 236.608L122.192 236.316L122.959 235.919L123.947 235.397L124.821 234.927L125.738 234.427L126.693 233.899L127.483 233.457L128.088 233.116L129.12 232.529L130.391 231.798L131.692 231.039L132.794 230.389L133.992 229.675L135.302 228.885L136.074 228.414L137.086 227.793L137.832 227.331L138.564 226.873L139.283 226.42L140.452 225.676L141.357 225.092L141.799 224.804L142.449 224.377L143.083 223.957L143.901 223.408L144.494 223.005L145.068 222.61L145.624 222.223L146.159 221.845L146.674 221.476L147.169 221.116L147.642 220.766L148.093 220.426L148.381 220.205L148.794 219.883L149.183 219.572L149.429 219.371L149.664 219.175L149.888 218.985L150.101 218.8L150.302 218.621L150.492 218.447L150.669 218.279L150.835 218.117L150.989 217.96C151.016 217.932 151.047 217.908 151.081 217.888C155.671 215.225 158.957 212.088 160.153 209.487Z" fill="#1B3C87"/>
<path d="M97.8834 233.298C97.9659 233.08 98.2091 232.971 98.4265 233.054L98.6522 233.136L98.8262 233.197L99.3395 233.367L99.6988 233.48L100.234 233.645L100.988 233.869L101.828 234.112L102.94 234.425L103.942 234.701C104.167 234.762 104.299 234.994 104.238 235.218C104.177 235.442 103.945 235.575 103.721 235.514L102.708 235.235L101.765 234.97L100.736 234.673L99.8314 234.403L99.304 234.24L98.7367 234.056L98.5399 233.989L98.2786 233.897L98.1276 233.841C97.9102 233.759 97.8008 233.516 97.8834 233.298Z" fill="#1B3C87"/>
<path d="M142.928 209.297C143.569 209.108 144.061 209.399 144.292 210.002C144.449 210.411 144.496 210.964 144.464 211.639C144.446 212.038 144.399 212.461 144.334 212.89L144.311 213.037L144.264 213.315L144.218 213.556L144.195 213.666C144.145 213.894 143.921 214.038 143.694 213.988C143.466 213.938 143.323 213.714 143.372 213.486L143.412 213.288L143.458 213.036L143.502 212.763C143.563 212.361 143.606 211.966 143.623 211.599C143.65 211.032 143.611 210.579 143.506 210.304C143.423 210.088 143.357 210.049 143.165 210.105C142.806 210.21 142.451 210.616 142.065 211.347L141.964 211.545L141.862 211.758L141.757 211.986L141.651 212.229L141.544 212.487L141.434 212.761L141.322 213.05L141.15 213.512L140.976 214.002L140.379 215.706L140.269 216.005L140.164 216.278C140.096 216.451 140.031 216.609 139.968 216.752L139.875 216.958C139.829 217.056 139.784 217.147 139.738 217.232C139.672 217.358 139.552 217.495 139.38 217.643L139.27 217.733C139.251 217.748 139.231 217.764 139.211 217.779L139.083 217.873C139.06 217.889 139.037 217.905 139.014 217.921L138.868 218.019L138.709 218.12L138.539 218.223L138.356 218.329L138.162 218.437L137.956 218.548L137.738 218.662L137.508 218.778L137.267 218.896L137.014 219.018L136.614 219.204L136.333 219.331L135.891 219.527L135.263 219.797L134.763 220.006L134.239 220.221L133.502 220.515L132.724 220.82L132.114 221.054L131.264 221.376L130.146 221.791C129.927 221.871 129.685 221.759 129.605 221.54C129.525 221.322 129.637 221.08 129.855 221L130.68 220.694L131.86 220.248L132.788 219.887L133.144 219.747L133.997 219.404L134.638 219.139L135.242 218.884L135.806 218.639L136.202 218.462L136.454 218.347L136.811 218.181L137.035 218.073L137.351 217.918L137.642 217.769L137.821 217.674L137.989 217.583L138.144 217.494L138.288 217.409C138.311 217.396 138.333 217.382 138.355 217.368L138.48 217.289L138.592 217.213C138.628 217.188 138.661 217.164 138.692 217.14L138.779 217.072L138.853 217.007C138.92 216.944 138.968 216.888 138.994 216.837C139.048 216.737 139.102 216.625 139.159 216.499L139.246 216.3L139.337 216.078L139.433 215.833L139.534 215.564L139.676 215.17L140.239 213.559L140.361 213.218L140.48 212.892L140.598 212.582C140.617 212.532 140.636 212.482 140.655 212.433L140.77 212.146C140.789 212.099 140.808 212.053 140.826 212.008L140.939 211.743C140.957 211.7 140.976 211.658 140.994 211.616L141.105 211.373C141.142 211.294 141.179 211.218 141.215 211.144L141.325 210.929C141.819 209.993 142.312 209.478 142.928 209.297Z" fill="#1B3C87"/>
<path d="M102.841 218.177C102.95 217.972 103.204 217.894 103.41 218.002L103.731 218.171L104.076 218.348L104.441 218.533L105.026 218.824L105.649 219.129L106.306 219.445L106.991 219.77L107.7 220.102L108.427 220.439L109.414 220.89L110.674 221.457L111.887 221.992L113.069 222.504L113.721 222.783L114.658 223.176L115.391 223.477L115.94 223.697L116.327 223.85L116.808 224.034L117.243 224.196L117.538 224.3L117.803 224.39L117.962 224.441L118.107 224.485L118.237 224.522L118.351 224.551C118.369 224.555 118.386 224.558 118.403 224.562L118.493 224.579C118.52 224.583 118.544 224.586 118.566 224.587L118.854 224.536C119.397 224.433 119.934 224.299 120.463 224.135L120.778 224.033C120.999 223.959 121.238 224.078 121.312 224.298C121.386 224.519 121.267 224.758 121.046 224.832C120.367 225.06 119.672 225.24 118.968 225.372L118.665 225.425L118.596 225.431C118.563 225.431 118.522 225.428 118.476 225.421L118.375 225.404L118.258 225.379C118.238 225.375 118.216 225.369 118.194 225.364L118.054 225.327L117.9 225.283L117.731 225.232L117.453 225.141L117.145 225.036L116.81 224.917L116.324 224.736L115.933 224.587L115.378 224.369L114.789 224.133L113.852 223.748L113.527 223.612L112.351 223.112L111.132 222.583L110.197 222.169L109.655 221.927L109.113 221.682L108.307 221.315L107.514 220.948L106.74 220.586L106.237 220.348L105.748 220.115L105.274 219.885L104.816 219.662L104.166 219.339L103.758 219.133L103.374 218.935C103.25 218.871 103.131 218.808 103.016 218.747C102.81 218.638 102.732 218.383 102.841 218.177Z" fill="#1B3C87"/>
<path d="M72.0117 207.923C91.4212 207.923 92.9119 246.456 87.5384 276.324C82.3123 278.43 52.7538 279.31 47.8267 274.529C46.0369 267.962 39.6654 207.927 72.0117 207.923Z" fill="#46DBC9"/>
<path d="M70.3273 205.817C82.7443 205.817 88.9224 221.091 88.9662 245.293C88.9662 245.525 88.7784 245.714 88.5458 245.715C88.3132 245.715 88.1243 245.527 88.1239 245.294C88.081 221.518 82.0709 206.659 70.3273 206.659C57.385 206.659 49.7507 216.357 46.5263 233.068C46.4823 233.297 46.2614 233.446 46.033 233.402C45.8047 233.358 45.6553 233.137 45.6994 232.909C48.9911 215.848 56.8882 205.817 70.3273 205.817Z" fill="#1B3C87"/>
<path d="M44.4359 251.023C44.6685 251.025 44.8555 251.215 44.8536 251.447C44.8507 251.812 44.8494 252.177 44.8497 252.544L44.8532 253.371L44.862 254.206L44.8708 254.762L44.8881 255.595L44.9102 256.425L44.9276 256.976L44.9575 257.799L44.9917 258.615L45.03 259.424L45.0578 259.959L45.0873 260.489L45.1185 261.015L45.1513 261.535L45.2033 262.306L45.2587 263.063L45.3171 263.806L45.3577 264.292L45.4426 265.241L45.5092 265.932L45.5782 266.602L45.6735 267.463L45.7473 268.083L45.8228 268.678L45.874 269.061L45.9519 269.613L46.0046 269.965L46.0845 270.471L46.1653 270.946L46.2196 271.246L46.2742 271.532L46.3289 271.803L46.3839 272.06L46.4389 272.301C46.4481 272.34 46.4573 272.378 46.4665 272.415L46.5162 272.614L46.5666 272.658C46.8001 272.859 47.0528 273.036 47.321 273.186L47.4837 273.274C47.6908 273.38 47.7728 273.633 47.6669 273.841C47.561 274.048 47.3073 274.13 47.1002 274.024C46.6473 273.792 46.2286 273.499 45.8558 273.153C45.7982 273.099 45.7568 273.031 45.7361 272.955L45.6778 272.734C45.6681 272.695 45.6584 272.656 45.6487 272.616L45.5905 272.369L45.5325 272.106L45.4746 271.827L45.417 271.532L45.3597 271.222L45.3028 270.897L45.2182 270.383L45.1348 269.839L45.0528 269.265L44.9724 268.663L44.9197 268.247L44.8679 267.819L44.792 267.158L44.7183 266.473L44.647 265.766L44.5785 265.039L44.5127 264.292L44.4501 263.528L44.3907 262.748L44.317 261.684L44.2661 260.871L44.2191 260.047L44.1763 259.212L44.1378 258.369L44.1039 257.518L44.0846 256.97C44.0755 256.696 44.0672 256.421 44.0596 256.145L44.0455 255.593L44.0335 255.04C44.0099 253.84 44.0018 252.635 44.0114 251.441C44.0133 251.208 44.2034 251.021 44.4359 251.023Z" fill="#1B3C87"/>
<path d="M87.9871 258.384C88.2188 258.403 88.3906 258.607 88.3708 258.839C87.9161 264.164 87.2003 269.532 86.26 274.714C86.234 274.857 86.1361 274.977 86.0011 275.03C85.754 275.128 85.4581 275.224 85.1177 275.315L84.8542 275.384C84.7637 275.406 84.6704 275.429 84.5745 275.451L84.279 275.516C84.2285 275.527 84.1773 275.538 84.1255 275.549L83.8071 275.613C83.7528 275.623 83.6979 275.633 83.6424 275.644L83.3022 275.706L82.9478 275.766L82.5799 275.824C82.5174 275.834 82.4544 275.844 82.3909 275.853L82.0033 275.91L81.6031 275.965L81.1908 276.018L80.7667 276.07L80.3314 276.12L79.8853 276.168L79.4287 276.215L78.9621 276.26L78.486 276.304L77.7547 276.365L77.2566 276.404L76.4943 276.458L75.7153 276.509L74.9211 276.555L74.3839 276.583L73.8409 276.609L73.0168 276.644L72.1822 276.674L71.3386 276.699L70.4874 276.72L69.6302 276.735L68.7684 276.745L68.1919 276.749L67.6145 276.75L66.7474 276.748L66.1694 276.743L65.3034 276.731L64.7275 276.72L63.8666 276.698L63.0108 276.671C62.916 276.668 62.8214 276.664 62.7268 276.66C62.4944 276.652 62.3132 276.456 62.3221 276.223C62.331 275.991 62.5266 275.81 62.759 275.819C63.2259 275.836 63.696 275.851 64.1683 275.864L64.7361 275.877L65.3054 275.888L65.876 275.897C66.8277 275.909 67.7826 275.91 68.7317 275.902L69.3004 275.896L69.8524 275.888L70.6762 275.872L71.2221 275.859L72.035 275.835L72.5723 275.817L73.3703 275.785L73.8966 275.762L74.4177 275.737L74.9332 275.71L75.6954 275.666L76.4428 275.618L76.9322 275.583L77.6522 275.529L78.122 275.49L78.8108 275.429L79.2586 275.387L79.6969 275.343L80.3356 275.274C80.4053 275.266 80.4745 275.258 80.5433 275.25L80.9506 275.201L81.5406 275.126L81.9194 275.074L82.286 275.02C82.3461 275.011 82.4056 275.002 82.4647 274.993L82.8124 274.938L83.1469 274.881L83.468 274.823L83.7752 274.764L84.068 274.703L84.3461 274.642C84.3912 274.631 84.4357 274.621 84.4795 274.611L84.7348 274.547C84.776 274.537 84.8166 274.526 84.8565 274.515L85.0881 274.45C85.1626 274.429 85.2343 274.407 85.3033 274.385L85.4734 274.327L85.5941 273.652C86.3963 269.084 87.023 264.382 87.4491 259.703L87.5316 258.768C87.55 258.552 87.7271 258.389 87.9379 258.382L87.9871 258.384Z" fill="#1B3C87"/>
<path d="M75.2713 216.281C77.0863 209.718 103.811 212.705 104.708 217.334C105.904 223.754 101.275 235.554 97.3928 237.791C93.809 237.643 72.1802 227.453 75.2713 216.281Z" fill="#46DBC9"/>
<path d="M101.129 213.727C101.248 213.527 101.507 213.462 101.706 213.582C102.702 214.177 103.31 214.838 103.454 215.572C104.637 221.924 100.15 234.043 95.9353 236.471C95.8664 236.51 95.7876 236.53 95.7081 236.527C95.6676 236.525 95.62 236.52 95.5658 236.511L95.4486 236.489L95.3144 236.458L95.1638 236.419L94.9976 236.371L94.8162 236.316L94.6205 236.252L94.4111 236.182L94.0728 236.062L93.7073 235.928L93.317 235.78L92.7618 235.562L92.3223 235.385L91.7097 235.133L91.0716 234.865L90.4133 234.582L89.7401 234.287L88.886 233.906L88.3707 233.672L87.5144 233.277L86.8377 232.959L86.1741 232.642L85.529 232.328L85.0605 232.096L84.3157 231.718L84.0322 231.572C83.9857 231.548 83.9396 231.523 83.8939 231.499C83.688 231.391 83.6086 231.137 83.7166 230.931C83.8247 230.725 84.0792 230.645 84.2852 230.753L84.7517 230.995C84.8318 231.036 84.9129 231.078 84.995 231.119L85.4992 231.372L86.0242 231.631L86.5664 231.894L87.1225 232.16C87.2162 232.204 87.3103 232.249 87.4047 232.293L87.975 232.56L88.4784 232.792L89.3106 233.171L90.293 233.608L90.7756 233.82L91.4051 234.091L92.1623 234.411L92.7379 234.649L93.2812 234.868L93.7869 235.066L94.2498 235.24L94.5658 235.355L94.7603 235.423L94.9412 235.483L95.1857 235.56L95.3297 235.602L95.4578 235.636C95.4778 235.64 95.4971 235.645 95.5157 235.649L95.6295 235.671C97.4217 234.554 99.3012 231.45 100.687 227.849L100.861 227.387L101.03 226.92C102.382 223.089 103.145 218.857 102.659 215.912L102.627 215.73C102.539 215.284 102.085 214.789 101.274 214.305C101.075 214.185 101.009 213.927 101.129 213.727Z" fill="#1B3C87"/>
<path d="M73.1809 214.483C74.1301 211.056 81.3894 209.781 89.633 210.563L90.2165 210.622C91.4839 210.756 92.7714 210.939 94.0599 211.169C94.2889 211.21 94.4413 211.429 94.4005 211.658C94.3596 211.887 94.1408 212.039 93.9119 211.999C93.2496 211.88 92.587 211.775 91.9271 211.683L91.3621 211.608C90.704 211.523 90.0494 211.452 89.4012 211.394L88.8473 211.347C81.301 210.751 74.7607 211.934 73.9926 214.708C73.7587 215.553 73.6681 216.432 73.7249 217.307C73.7399 217.539 73.564 217.739 73.3319 217.754C73.0998 217.77 72.8994 217.594 72.8844 217.361C72.8216 216.392 72.9218 215.419 73.1809 214.483Z" fill="#1B3C87"/>
<path d="M73.4436 212.275C73.4436 213.989 62.5787 214.208 62.5787 212.275V196.856H73.4436V212.275Z" fill="white"/>
<path d="M71.7593 205.21C71.9753 205.21 72.1534 205.373 72.1777 205.582L72.1805 205.631V210.59C72.1805 210.822 71.9919 211.011 71.7593 211.011C71.5432 211.011 71.3652 210.848 71.3408 210.639L71.338 210.59V205.631C71.338 205.399 71.5266 205.21 71.7593 205.21Z" fill="#1B3C87"/>
<path d="M71.7591 194.75C71.975 194.75 72.153 194.913 72.1773 195.122L72.1802 195.172V202.093C72.1802 202.326 71.9916 202.514 71.7591 202.514C71.5431 202.514 71.3651 202.352 71.3408 202.142L71.3379 202.093V195.592H61.3153V210.59C61.3153 210.759 61.725 211 62.4927 211.191L62.7011 211.24L62.9255 211.286L63.0437 211.308C64.2005 211.514 65.7558 211.585 67.2697 211.509C67.502 211.497 67.6998 211.676 67.7116 211.908C67.7233 212.14 67.5445 212.338 67.3123 212.35L66.9741 212.365C66.862 212.37 66.7506 212.373 66.6399 212.376L66.31 212.383C66.2008 212.385 66.0924 212.386 65.9849 212.386L65.665 212.385C65.6121 212.384 65.5595 212.383 65.5071 212.382L65.1957 212.375L64.8904 212.363L64.5918 212.347L64.3003 212.327C64.2523 212.323 64.2046 212.319 64.1572 212.315L63.8769 212.288L63.6047 212.257C63.56 212.252 63.5157 212.246 63.4717 212.24L63.2123 212.203C63.1273 212.19 63.0439 212.176 62.962 212.161L62.7211 212.115C62.4852 212.067 62.264 212.012 62.0596 211.951L61.8607 211.887C61.0239 211.602 60.5119 211.193 60.4751 210.653L60.473 210.59V195.172C60.473 194.955 60.6356 194.777 60.845 194.753L60.8941 194.75H71.7591Z" fill="#1B3C87"/>
<path d="M70.5295 200.218C76.6649 200.218 81.6386 193.675 81.6386 185.605C81.6386 177.534 76.6649 170.991 70.5295 170.991C64.394 170.991 59.4203 177.534 59.4203 185.605C59.4203 193.675 64.394 200.218 70.5295 200.218Z" fill="white"/>
<path d="M69.2661 168.885C75.5995 168.885 80.6936 175.503 80.7948 183.668L80.7964 183.916C80.8182 186.613 80.2505 189.282 79.133 191.736C79.0366 191.948 78.7868 192.041 78.5752 191.945C78.3635 191.848 78.2701 191.598 78.3665 191.387C79.3951 189.128 79.9357 186.679 79.9542 184.196L79.9541 183.92C79.9541 176.06 75.1403 169.727 69.2661 169.727C63.3911 169.727 58.5738 176.061 58.5738 183.92C58.5738 191.779 63.3911 198.112 69.2661 198.112C71.8273 198.112 74.2573 196.907 76.1774 194.741C76.3317 194.566 76.5979 194.55 76.7719 194.705C76.9459 194.859 76.9619 195.125 76.8076 195.299C74.7346 197.639 72.0806 198.955 69.2661 198.955C62.868 198.955 57.7316 192.201 57.7316 183.92C57.7316 175.638 62.868 168.885 69.2661 168.885Z" fill="#1B3C87"/>
<path d="M57.4957 187.197C57.4957 175.558 61.3574 164.415 65.2486 164.415C69.1397 164.415 66.9962 169.938 66.9962 169.938C68.6133 166.703 73.612 161.702 75.7977 161.702C77.9833 161.702 78.5139 165.072 76.2735 168.51C78.2401 166.318 80.9978 164.999 83.9379 164.845C86.4647 164.845 86.7931 167.844 86.7931 170.797C86.7931 176.017 75.844 184.029 74.6101 185.411C74.5132 187.125 73.0856 201.073 69.6114 201.073C66.1371 201.073 57.4957 200.218 57.4957 187.197Z" fill="#ECC953"/>
<path d="M71.2829 195.294C71.355 195.073 71.5927 194.952 71.8138 195.024C72.0349 195.096 72.1558 195.334 72.0837 195.555L72.0304 195.716L71.9226 196.031L71.813 196.334C70.9847 198.562 70.0053 199.81 68.7692 199.81C65.4441 199.81 62.5355 199.054 60.1749 196.876C60.0039 196.718 59.9932 196.451 60.1509 196.28C60.3086 196.109 60.575 196.099 60.7459 196.256C62.9186 198.261 65.6356 198.967 68.7692 198.967C69.4296 198.967 70.1153 198.182 70.7515 196.715L70.86 196.457L70.9675 196.186L71.0739 195.901C71.0915 195.853 71.1091 195.804 71.1267 195.754L71.2312 195.45C71.2485 195.399 71.2657 195.347 71.2829 195.294Z" fill="#1B3C87"/>
<path d="M84.6952 171.82C84.8048 171.615 85.0599 171.538 85.2651 171.647C85.4702 171.757 85.5476 172.012 85.438 172.217C85.0638 172.918 84.581 173.65 83.9969 174.415C83.032 175.678 81.8112 177.003 80.3549 178.408L79.9694 178.777L79.4421 179.273L79.0321 179.652L78.6171 180.028L78.4033 180.219L77.7151 180.826L77.0615 181.392L76.3051 182.04L75.6074 182.635C75.4303 182.786 75.1645 182.765 75.0138 182.587C74.863 182.41 74.8844 182.144 75.0615 181.994L76.5072 180.757L77.1565 180.195L77.8394 179.594L78.2585 179.217L78.6652 178.845L79.0737 178.464L79.4983 178.063C81.0475 176.587 82.333 175.205 83.3277 173.903C83.8858 173.173 84.3441 172.477 84.6952 171.82Z" fill="#1B3C87"/>
<path d="M83.0958 162.738C85.1475 162.738 86.0624 164.308 86.301 167.154L86.3239 167.464C86.3274 167.516 86.3305 167.569 86.3335 167.622C86.3466 167.855 86.1689 168.054 85.9367 168.067C85.7045 168.08 85.5056 167.902 85.4926 167.67C85.4868 167.566 85.4802 167.464 85.4728 167.365L85.4484 167.072C85.4439 167.024 85.4392 166.977 85.4343 166.93L85.4026 166.655C85.1406 164.592 84.442 163.581 83.1064 163.581C82.1686 163.604 81.2404 163.777 80.3565 164.091C80.1374 164.169 79.8965 164.055 79.8185 163.836C79.7406 163.617 79.855 163.376 80.0741 163.298C81.0419 162.953 82.0582 162.764 83.0958 162.738Z" fill="#1B3C87"/>
<path d="M74.9555 159.587C77.7004 159.587 78.0884 163.511 75.7841 167.046C75.6571 167.241 75.3962 167.296 75.2013 167.169C75.0065 167.042 74.9515 166.781 75.0786 166.586C75.4692 165.987 75.7721 165.387 75.9933 164.811L76.0774 164.581C76.8752 162.3 76.3765 160.43 74.9555 160.43C74.3224 160.43 73.3447 160.966 72.2636 161.802L72.0124 162.001L71.7582 162.209C71.6304 162.316 71.5018 162.426 71.3726 162.539L71.1138 162.77C70.8545 163.005 70.5941 163.251 70.3357 163.506L70.078 163.764L69.8222 164.028C69.7798 164.072 69.7374 164.116 69.6952 164.161L69.4436 164.431C69.2353 164.658 69.0307 164.888 68.8316 165.121L68.5954 165.401C67.7397 166.43 67.0027 167.488 66.5307 168.433C66.2911 168.912 65.5678 168.592 65.7614 168.092L65.7953 168L65.8464 167.851C65.9124 167.654 65.9786 167.434 66.0404 167.199C66.1968 166.603 66.2977 166.012 66.317 165.468C66.3706 163.954 65.8285 163.143 64.4064 163.143C61.0248 163.143 57.3802 173.214 57.0914 184.103C57.0852 184.336 56.8917 184.52 56.6592 184.513C56.4267 184.507 56.2432 184.314 56.2494 184.081C56.5503 172.739 60.3279 162.3 64.4064 162.3C66.3854 162.3 67.2274 163.56 67.1587 165.498C67.1563 165.566 67.1527 165.635 67.1482 165.704L67.1327 165.893L67.1546 165.864C67.373 165.569 67.6039 165.273 67.8446 164.979L68.0885 164.686C68.212 164.54 68.3376 164.395 68.4651 164.25L68.7226 163.963C68.8091 163.868 68.8964 163.774 68.9843 163.68L69.2498 163.401C69.3389 163.309 69.4284 163.217 69.5184 163.127L69.7895 162.858L70.0624 162.595C71.8413 160.909 73.6991 159.649 74.8707 159.59L74.9555 159.587Z" fill="#1B3C87"/>
<path d="M75.1155 190.748C77.0668 190.748 78.6487 189.166 78.6487 187.214C78.6487 185.262 77.0668 183.679 75.1155 183.679C73.1641 183.679 71.5823 185.262 71.5823 187.214C71.5823 189.166 73.1641 190.748 75.1155 190.748Z" fill="white"/>
<path d="M72.2476 182.964C73.4446 182.247 74.9312 182.215 76.1583 182.879C76.3628 182.99 76.4388 183.246 76.3281 183.45C76.2174 183.655 75.9618 183.731 75.7573 183.62C74.7918 183.097 73.6222 183.123 72.6804 183.687C71.7385 184.251 71.1643 185.271 71.1691 186.393C71.1634 186.503 71.1634 186.614 71.1691 186.725C71.181 186.957 71.0023 187.155 70.77 187.167C70.5378 187.179 70.3398 187 70.3279 186.768C70.3208 186.628 70.3208 186.489 70.3274 186.373C70.3206 184.977 71.0505 183.682 72.2476 182.964Z" fill="#1B3C87"/>
<path d="M71.5308 188.641C71.6917 188.473 71.9583 188.467 72.1262 188.628C72.7037 189.182 73.4729 189.49 74.2737 189.489C74.5718 189.489 74.8684 189.445 75.1539 189.359C75.3765 189.292 75.6115 189.418 75.6787 189.641C75.7459 189.863 75.6198 190.098 75.3971 190.166C75.0325 190.276 74.6537 190.331 74.2739 190.331C73.2567 190.333 72.2782 189.941 71.5436 189.237C71.3757 189.076 71.3699 188.809 71.5308 188.641Z" fill="#1B3C87"/>
<path opacity="0.15" d="M278.113 45.8083H254.85C254.526 45.8083 254.323 46.1594 254.485 46.4403L266.117 66.5893C266.279 66.8701 266.684 66.8701 266.846 66.5893L278.478 46.4403C278.64 46.1594 278.437 45.8083 278.113 45.8083ZM277.383 46.6509L266.481 65.5361L255.579 46.6509H277.383Z" fill="white"/>
<path opacity="0.15" d="M20.3932 75.9363L12.0667 70.5704C11.8711 70.4444 11.6105 70.5008 11.4846 70.6964L0.907021 87.1214C0.781065 87.317 0.837458 87.5777 1.03298 87.7037L9.35953 93.0696C9.55505 93.1956 9.81566 93.1392 9.94162 92.9436L20.5192 76.5186C20.6451 76.323 20.5887 76.0623 20.3932 75.9363ZM19.5831 76.4163L9.46161 92.1331L1.8431 87.2235L11.9645 71.5068L19.5831 76.4163Z" fill="white"/>
<path opacity="0.15" d="M216.824 274.466L163.137 254.94L126.468 355.834L180.154 375.359L216.824 274.466Z" fill="white"/>
<path opacity="0.15" d="M160.481 246.751C154.862 246.751 150.307 251.308 150.307 256.929C150.307 262.55 154.862 267.106 160.481 267.106C166.1 267.106 170.655 262.55 170.655 256.929C170.655 251.308 166.1 246.751 160.481 246.751ZM160.481 247.594C165.635 247.594 169.813 251.773 169.813 256.929C169.813 262.084 165.635 266.264 160.481 266.264C155.327 266.264 151.149 262.084 151.149 256.929C151.149 251.773 155.327 247.594 160.481 247.594Z" fill="white"/>
<path opacity="0.15" d="M292.187 207.287L290.414 243.726L322.848 227.04L292.187 207.287Z" fill="white"/>
</g>
<defs>
<clipPath id="clip0">
<rect width="323" height="420" fill="white" transform="translate(0.00012207)"/>
</clipPath>
</defs>
</svg>
